<svg xmlns="http://www.w3.org/2000/svg" viewBox="0 0 100 100" fill="none">
  <rect x="10" y="30" width="80" height="50" rx="3" stroke="currentColor" stroke-width="3" fill="none"/>
  <rect x="20" y="38" width="12" height="8" rx="1" stroke="currentColor" stroke-width="2" fill="none"/>
  <rect x="38" y="38" width="12" height="8" rx="1" stroke="currentColor" stroke-width="2" fill="none"/>
  <rect x="56" y="38" width="12" height="8" rx="1" stroke="currentColor" stroke-width="2" fill="none"/>
  <rect x="74" y="38" width="12" height="8" rx="1" stroke="currentColor" stroke-width="2" fill="none"/>
  <rect x="20" y="52" width="12" height="8" rx="1" stroke="currentColor" stroke-width="2" fill="none"/>
  <rect x="38" y="52" width="12" height="8" rx="1" stroke="currentColor" stroke-width="2" fill="none"/>
  <rect x="56" y="52" width="12" height="8" rx="1" stroke="currentColor" stroke-width="2" fill="none"/>
  <rect x="74" y="52" width="12" height="8" rx="1" stroke="currentColor" stroke-width="2" fill="none"/>
  <rect x="20" y="66" width="12" height="8" rx="1" stroke="currentColor" stroke-width="2" fill="none"/>
  <rect x="38" y="66" width="12" height="8" rx="1" stroke="currentColor" stroke-width="2" fill="none"/>
  <rect x="56" y="66" width="12" height="8" rx="1" stroke="currentColor" stroke-width="2" fill="none"/>
  <rect x="74" y="66" width="12" height="8" rx="1" stroke="currentColor" stroke-width="2" fill="none"/>
</svg>